HIERARCHY
ROOT hip
{
  OFFSET 0.00112043 5.09927 -9.65472
  CHANNELS 6 Xposition Yposition Zposition Zrotation Xrotation Yrotation
  JOINT abdomen
  {
    OFFSET 0 -1.186 -1.5018
    CHANNELS 3 Zrotation Xrotation Yrotation
    JOINT abdomen2
    {
      OFFSET 0 9.964 0.2134
      CHANNELS 3 Zrotation Xrotation Yrotation
      JOINT chest
      {
        OFFSET 0 13.134 -3.2573
        CHANNELS 3 Zrotation Xrotation Yrotation
        JOINT neck
        {
          OFFSET 0 20.686 -1.6905
          CHANNELS 3 Zrotation Xrotation Yrotation
          JOINT head
          {
            OFFSET 0 7.238 -0.1237
            CHANNELS 3 Zrotation Xrotation Yrotation
            End Site
            {
              OFFSET 0 0 0
            }
          }
        }
        JOINT lCollar
        {
          OFFSET 1.7069 20.075 5.0056
          CHANNELS 3 Zrotation Xrotation Yrotation
          JOINT lShldr
          {
            OFFSET 13.6458 -0.047 -4.849
            CHANNELS 3 Zrotation Xrotation Yrotation
            JOINT lForeArm
            {
              OFFSET 28.3255 -0.9759 2.2888
              CHANNELS 3 Zrotation Xrotation Yrotation
              JOINT lHand
              {
                OFFSET 22.1583 -0.53 10.8316
                CHANNELS 3 Zrotation Xrotation Yrotation
                JOINT lThumb1
                {
                  OFFSET 0.786 0.112 2.5817
                  CHANNELS 3 Zrotation Xrotation Yrotation
                  JOINT lThumb2
                  {
                    OFFSET 0.3601 -0.878 4.2331
                    CHANNELS 3 Zrotation Xrotation Yrotation
                    JOINT lThumb2_End
                    {
                      OFFSET 1.8127 -1.216 2.2227
                      CHANNELS 3 Zrotation Xrotation Yrotation
                      End Site
                      {
                        OFFSET 0.0181 -0.0122 0.0222
                      }
                    }
                  }
                }
                JOINT lCarpal1
                {
                  OFFSET 0.9571 1.114 1.7695
                  CHANNELS 3 Zrotation Xrotation Yrotation
                  JOINT lIndex1
                  {
                    OFFSET 4.1246 0.487 4.1451
                    CHANNELS 3 Zrotation Xrotation Yrotation
                    JOINT lIndex2
                    {
                      OFFSET 3.4052 -1.454 2.7682
                      CHANNELS 3 Zrotation Xrotation Yrotation
                      JOINT lIndex2_End
                      {
                        OFFSET 1.4531 -1.795 1.2713
                        CHANNELS 3 Zrotation Xrotation Yrotation
                        End Site
                        {
                          OFFSET 0.0145 -0.0179 0.0127
                        }
                      }
                    }
                  }
                  JOINT lMid1
                  {
                    OFFSET 5.6954 0.21 2.1184
                    CHANNELS 3 Zrotation Xrotation Yrotation
                    JOINT lMid2
                    {
                      OFFSET 3.9766 -1.54 2.3863
                      CHANNELS 3 Zrotation Xrotation Yrotation
                      JOINT lMid2_End
                      {
                        OFFSET 1.4042 -1.926 1.125
                        CHANNELS 3 Zrotation Xrotation Yrotation
                        End Site
                        {
                          OFFSET 0.014 -0.0193 0.0113
                        }
                      }
                    }
                  }
                }
                JOINT lCarpal2
                {
                  OFFSET 2.0956 0.66 -0.3894
                  CHANNELS 3 Zrotation Xrotation Yrotation
                  JOINT lRing1
                  {
                    OFFSET 5.0395 -0.09 2.4971
                    CHANNELS 3 Zrotation Xrotation Yrotation
                    JOINT lRing2
                    {
                      OFFSET 3.7921 -1.552 1.4806
                      CHANNELS 3 Zrotation Xrotation Yrotation
                      JOINT lRing2_End
                      {
                        OFFSET 1.4655 -1.808 0.9609
                        CHANNELS 3 Zrotation Xrotation Yrotation
                        End Site
                        {
                          OFFSET 0.0147 -0.0181 0.0096
                        }
                      }
                    }
                  }
                  JOINT lPinky1
                  {
                    OFFSET 4.9141 -1.269 0.3591
                    CHANNELS 3 Zrotation Xrotation Yrotation
                    JOINT lPinky2
                    {
                      OFFSET 3.1477 -1.685 0.8462
                      CHANNELS 3 Zrotation Xrotation Yrotation
                      JOINT lPinky2_End
                      {
                        OFFSET 0.8055 -1.585 0.7955
                        CHANNELS 3 Zrotation Xrotation Yrotation
                        End Site
                        {
                          OFFSET 0.0081 -0.0158 0.008
                        }
                      }
                    }
                  }
                }
              }
            }
          }
        }
        JOINT rCollar
        {
          OFFSET -1.7069 20.075 5.0056
          CHANNELS 3 Zrotation Xrotation Yrotation
          JOINT rShldr
          {
            OFFSET -13.6458 -0.047 -4.849
            CHANNELS 3 Zrotation Xrotation Yrotation
            JOINT rForeArm
            {
              OFFSET -28.3255 -0.9759 2.2888
              CHANNELS 3 Zrotation Xrotation Yrotation
              JOINT rHand
              {
                OFFSET -22.1583 -0.53 10.8316
                CHANNELS 3 Zrotation Xrotation Yrotation
                JOINT rThumb1
                {
                  OFFSET -0.786 0.112 2.5817
                  CHANNELS 3 Zrotation Xrotation Yrotation
                  JOINT rThumb2
                  {
                    OFFSET -0.3601 -0.878 4.2331
                    CHANNELS 3 Zrotation Xrotation Yrotation
                    JOINT rThumb2_End
                    {
                      OFFSET -1.8127 -1.216 2.2227
                      CHANNELS 3 Zrotation Xrotation Yrotation
                      End Site
                      {
                        OFFSET -0.0181 -0.0122 0.0222
                      }
                    }
                  }
                }
                JOINT rCarpal1
                {
                  OFFSET -0.9571 1.114 1.7695
                  CHANNELS 3 Zrotation Xrotation Yrotation
                  JOINT rIndex1
                  {
                    OFFSET -4.1246 0.487 4.1451
                    CHANNELS 3 Zrotation Xrotation Yrotation
                    JOINT rIndex2
                    {
                      OFFSET -3.4052 -1.454 2.7682
                      CHANNELS 3 Zrotation Xrotation Yrotation
                      JOINT rIndex2_End
                      {
                        OFFSET -1.4531 -1.795 1.2713
                        CHANNELS 3 Zrotation Xrotation Yrotation
                        End Site
                        {
                          OFFSET -0.0145 -0.018 0.0127
                        }
                      }
                    }
                  }
                  JOINT rMid1
                  {
                    OFFSET -5.6954 0.21 2.1184
                    CHANNELS 3 Zrotation Xrotation Yrotation
                    JOINT rMid2
                    {
                      OFFSET -3.9766 -1.54 2.3863
                      CHANNELS 3 Zrotation Xrotation Yrotation
                      JOINT rMid2_End
                      {
                        OFFSET -1.4042 -1.926 1.125
                        CHANNELS 3 Zrotation Xrotation Yrotation
                        End Site
                        {
                          OFFSET -0.014 -0.0193 0.0113
                        }
                      }
                    }
                  }
                }
                JOINT rCarpal2
                {
                  OFFSET -2.0956 0.66 -0.3894
                  CHANNELS 3 Zrotation Xrotation Yrotation
                  JOINT rRing1
                  {
                    OFFSET -5.0395 -0.09 2.4971
                    CHANNELS 3 Zrotation Xrotation Yrotation
                    JOINT rRing2
                    {
                      OFFSET -3.7921 -1.552 1.4806
                      CHANNELS 3 Zrotation Xrotation Yrotation
                      JOINT rRing2_End
                      {
                        OFFSET -1.4655 -1.808 0.9609
                        CHANNELS 3 Zrotation Xrotation Yrotation
                        End Site
                        {
                          OFFSET -0.0147 -0.0181 0.0096
                        }
                      }
                    }
                  }
                  JOINT rPinky1
                  {
                    OFFSET -4.9141 -1.269 0.3592
                    CHANNELS 3 Zrotation Xrotation Yrotation
                    JOINT rPinky2
                    {
                      OFFSET -3.1477 -1.685 0.8462
                      CHANNELS 3 Zrotation Xrotation Yrotation
                      JOINT rPinky2_End
                      {
                        OFFSET -0.8055 -1.585 0.7955
                        CHANNELS 3 Zrotation Xrotation Yrotation
                        End Site
                        {
                          OFFSET -0.0081 -0.0158 0.008
                        }
                      }
                    }
                  }
                }
              }
            }
          }
        }
      }
    }
  }
  JOINT lThigh
  {
    OFFSET 8.367 -8.2066 0.5982
    CHANNELS 3 Zrotation Xrotation Yrotation
    JOINT lShin
    {
      OFFSET 2.1923 -43.463 -0.4932
      CHANNELS 3 Zrotation Xrotation Yrotation
      JOINT lFoot
      {
        OFFSET 0.7333 -45.8593 -2.6451
        CHANNELS 3 Zrotation Xrotation Yrotation
        End Site
        {
          OFFSET 2.6618 -4.2699 12.3931
        }
      }
    }
  }
  JOINT rThigh
  {
    OFFSET -8.367 -8.2066 0.5982
    CHANNELS 3 Zrotation Xrotation Yrotation
    JOINT rShin
    {
      OFFSET -2.1923 -43.463 -0.4931
      CHANNELS 3 Zrotation Xrotation Yrotation
      JOINT rFoot
      {
        OFFSET -0.7333 -45.8593 -2.6451
        CHANNELS 3 Zrotation Xrotation Yrotation
        End Site
        {
          OFFSET -2.6618 -4.2699 12.3931
        }
      }
    }
  }
}
MOTION
Frames:	5
Frame Time:	0.0333333
0 91.7903 2.51682 0 0 -0 0 0 -0 0 0 -0 0 0 -0 0 0 -0 0 0 -0 0 0 -0 1.66051 0.0835086 5.75766 -0.0175111 0.895433 15.7816 7.95139e-016 -1.98785e-016 -0 5.46658e-016 -3.97569e-016 -0 5.96354e-016 0 -0 3.97569e-016 1.98785e-016 9.54166e-015 1.49089e-016 -3.97569e-016 -0 6.4605e-016 0 3.18055e-015 5.96354e-016 0 3.18055e-015 8.94531e-016 -1.98785e-016 6.36111e-015 6.4605e-016 0 3.18055e-015 5.96354e-016 0 3.18055e-015 8.94531e-016 -1.98785e-016 6.36111e-015 1.49089e-016 -3.97569e-016 -0 6.4605e-016 0 3.18055e-015 5.96354e-016 0 3.18055e-015 8.94531e-016 -1.98785e-016 6.36111e-015 6.4605e-016 0 3.18055e-015 5.96354e-016 0 3.18055e-015 8.94531e-016 -1.98785e-016 6.36111e-015 0 0 -0 -1.4496 0.0636048 -5.0245 -1.74811 1.20616 -16.8394 -1.19271e-015 1.98785e-016 -3.18055e-015 -3.97569e-016 1.98785e-016 -3.18055e-015 -2.98177e-016 1.98785e-016 -3.18055e-015 -2.98177e-016 3.97569e-016 -0 4.96962e-016 0 -6.36111e-015 -9.93923e-017 3.97569e-016 -0 -8.94531e-016 5.96354e-016 -0 -3.97569e-016 3.97569e-016 -0 -9.93923e-017 3.97569e-016 -0 -8.94531e-016 5.96354e-016 -0 -3.97569e-016 3.97569e-016 -0 4.96962e-016 0 -6.36111e-015 -9.93923e-017 3.97569e-016 -0 -8.94531e-016 5.96354e-016 -0 -3.97569e-016 3.97569e-016 -0 -9.93923e-017 3.97569e-016 -0 -8.94531e-016 5.96354e-016 -0 -3.97569e-016 3.97569e-016 -0 -4.66111 -0.998717 0.12318 0.00986924 1.54847 0.176523 4.65186 -0.572283 -0.254274 4.66111 -0.998765 -0.123176 -0.00986867 1.54869 -0.176537 -4.65186 -0.572453 0.25427 
1.73976 48.071 4.964 0 28.997 -0 -0.0519538 1.50946 -0.448953 -0.0921172 3.01928 -0.897004 -0.0921174 3.01929 -0.897004 1.06461e-005 -19.0052 -3.76106e-006 1.07258e-007 0.361949 2.46545e-008 -20.2176 -19.349 -30.9839 -42.7837 -2.07599 -4.36976 -38.4428 27.8381 -17.3211 52.6184 2.1917 34.4225 2.3802e-006 -8.55082e-007 3.51387e-006 2.45466e-007 2.97133e-006 -2.19813e-006 2.05883e-006 6.18435e-007 4.26278e-006 -7.15625e-015 -3.18055e-015 -0 2.3802e-006 -8.55082e-007 3.51387e-006 2.45466e-007 2.97133e-006 -2.19813e-006 2.05883e-006 6.18435e-007 4.26278e-006 2.3802e-006 -8.55082e-007 3.51387e-006 2.45466e-007 2.97133e-006 -2.19813e-006 2.05883e-006 6.18435e-007 4.26278e-006 -7.15625e-015 -3.18055e-015 -0 2.3802e-006 -8.55082e-007 3.51387e-006 2.45466e-007 2.97133e-006 -2.19813e-006 2.05883e-006 6.18435e-007 4.26278e-006 2.3802e-006 -8.55082e-007 3.51387e-006 2.45466e-007 2.97133e-006 -2.19813e-006 2.05883e-006 6.18435e-007 4.26278e-006 18.9602 -20.1558 30.0731 43.9718 -1.89127 6.04622 34.8234 25.4086 15.3903 -46.7285 2.09619 -29.4478 9.54166e-015 0 4.77083e-015 8.74653e-015 0 4.77083e-015 -7.95139e-016 3.18055e-015 -1.59028e-015 9.54166e-015 3.18055e-015 4.77083e-015 1.11319e-014 0 9.54166e-015 8.74653e-015 -3.18055e-015 -0 2.38542e-015 -3.18055e-015 -1.59028e-015 1.11319e-014 0 9.54166e-015 8.74653e-015 -3.18055e-015 -0 2.38542e-015 -3.18055e-015 -1.59028e-015 9.54166e-015 3.18055e-015 4.77083e-015 1.11319e-014 0 9.54166e-015 8.74653e-015 -3.18055e-015 -0 2.38542e-015 -3.18055e-015 -1.59028e-015 1.11319e-014 0 9.54166e-015 8.74653e-015 -3.18055e-015 -0 2.38542e-015 -3.18055e-015 -1.59028e-015 10.9808 -38.8933 21.0768 146.217 86.299 -141.841 -24.9467 59.7396 34.9701 -11.1138 -38.8895 -21.2332 -144.586 86.248 140.241 25.9548 60.6195 -35.9121 
1.7398 48.1949 5.25856 0 27.3464 -0 -0.0603147 2.10351 -0.445362 -0.104359 4.20741 -0.889407 -0.104359 4.2074 -0.889407 0.0705518 -18.8986 0.0117299 -2.58028e-007 0.489027 -9.87548e-007 -19.9334 -19.9836 -30.894 -42.7837 -2.07598 -4.36976 -39.1732 28.3566 -17.8493 53.6327 2.44303 34.3915 1.03368e-014 -3.18055e-015 -3.18055e-015 7.95139e-016 3.18055e-015 -4.77083e-015 -3.97569e-015 0 -3.18055e-015 3.18055e-015 -3.18055e-015 -4.77083e-015 -6.36111e-015 -3.18055e-015 1.59028e-015 4.77083e-015 -3.18055e-015 1.59028e-015 -5.56597e-015 3.18055e-015 -1.59028e-015 -6.36111e-015 -3.18055e-015 1.59028e-015 4.77083e-015 -3.18055e-015 1.59028e-015 -5.56597e-015 3.18055e-015 -1.59028e-015 3.18055e-015 -3.18055e-015 -4.77083e-015 -6.36111e-015 -3.18055e-015 1.59028e-015 4.77083e-015 -3.18055e-015 1.59028e-015 -5.56597e-015 3.18055e-015 -1.59028e-015 -6.36111e-015 -3.18055e-015 1.59028e-015 4.77083e-015 -3.18055e-015 1.59028e-015 -5.56597e-015 3.18055e-015 -1.59028e-015 18.6764 -20.7783 29.9891 43.9718 -1.89127 6.04623 35.5959 25.91 15.9881 -47.7434 2.19002 -29.4579 2.6474e-006 -2.12744e-006 1.28612e-006 -3.29039e-006 -8.41459e-007 1.7143e-007 -7.3962e-007 -3.42444e-006 1.43051e-006 -0 -3.18055e-015 -0 2.6474e-006 -2.12744e-006 1.28612e-006 -3.29039e-006 -8.41459e-007 1.7143e-007 -7.3962e-007 -3.42444e-006 1.43051e-006 2.6474e-006 -2.12744e-006 1.28612e-006 -3.29039e-006 -8.41459e-007 1.7143e-007 -7.3962e-007 -3.42444e-006 1.43051e-006 -0 -3.18055e-015 -0 2.6474e-006 -2.12744e-006 1.28612e-006 -3.29039e-006 -8.41459e-007 1.7143e-007 -7.3962e-007 -3.42444e-006 1.43051e-006 2.6474e-006 -2.12744e-006 1.28612e-006 -3.29039e-006 -8.41459e-007 1.7143e-007 -7.3962e-007 -3.42444e-006 1.43051e-006 10.4902 -36.6464 20.3997 139.835 86.8913 -135.502 -24.8845 59.6982 34.8916 -10.6226 -36.6431 -20.5546 -137.995 86.8283 133.695 25.8893 60.5791 -35.8306 
1.73983 48.3157 5.54984 0 25.6901 -0 -0.0686773 2.6996 -0.441514 -0.116694 5.39968 -0.881256 -0.116694 5.39966 -0.881256 0.141055 -18.7929 0.0233406 -1.20595e-007 0.616126 -4.3813e-007 -19.6467 -20.6183 -30.8004 -42.7837 -2.07599 -4.36976 -39.9031 28.882 -18.3735 54.6487 2.69408 34.3559 -3.18055e-015 3.18055e-015 -6.36111e-015 -1.59028e-015 -3.18055e-015 -3.18055e-015 7.95139e-016 0 -4.77083e-015 -4.77083e-015 0 -3.18055e-015 -1.35174e-014 3.18055e-015 6.36111e-015 -7.95139e-016 3.18055e-015 -0 -5.56597e-015 6.36111e-015 -7.95139e-015 -1.35174e-014 3.18055e-015 6.36111e-015 -7.95139e-016 3.18055e-015 -0 -5.56597e-015 6.36111e-015 -7.95139e-015 -4.77083e-015 0 -3.18055e-015 -1.35174e-014 3.18055e-015 6.36111e-015 -7.95139e-016 3.18055e-015 -0 -5.56597e-015 6.36111e-015 -7.95139e-015 -1.35174e-014 3.18055e-015 6.36111e-015 -7.95139e-016 3.18055e-015 -0 -5.56597e-015 6.36111e-015 -7.95139e-015 18.3904 -21.4007 29.9014 43.9718 -1.89127 6.04622 36.3674 26.4195 16.5821 -48.7597 2.28415 -29.4664 -8.79039e-007 -2.53074e-008 3.6973e-006 5.56141e-007 -1.45867e-006 -2.96796e-006 -5.56141e-007 1.45867e-006 2.96796e-006 -0 0 1.59028e-015 -8.79039e-007 -2.53074e-008 3.6973e-006 5.56141e-007 -1.45867e-006 -2.96796e-006 -5.56141e-007 1.45867e-006 2.96796e-006 -8.79039e-007 -2.53074e-008 3.6973e-006 5.56141e-007 -1.45867e-006 -2.96796e-006 -5.56141e-007 1.45867e-006 2.96796e-006 -0 0 1.59028e-015 -8.79039e-007 -2.53074e-008 3.6973e-006 5.56141e-007 -1.45867e-006 -2.96796e-006 -5.56141e-007 1.45867e-006 2.96796e-006 -8.79039e-007 -2.53074e-008 3.6973e-006 5.56141e-007 -1.45867e-006 -2.96796e-006 -5.56141e-007 1.45867e-006 2.96796e-006 10.0401 -34.3817 19.7607 130.624 87.4278 -126.334 -24.8231 59.657 34.8141 -10.1721 -34.3788 -19.9141 -128.642 87.3489 124.384 25.8246 60.5389 -35.75 
1.73986 48.4334 5.83782 0 24.029 -0 -0.0770404 3.2975 -0.437403 -0.129136 6.59551 -0.87253 -0.129136 6.59553 -0.87253 0.211519 -18.6862 0.0348005 3.49325e-007 0.743257 -2.45612e-007 -19.3576 -21.2527 -30.7028 -42.7837 -2.07598 -4.36977 -40.6323 29.414 -18.8934 55.6663 2.94477 34.3159 -2.94766e-006 -6.46463e-007 -5.65525e-007 -5.65525e-007 -1.49547e-006 2.94766e-006 -5.62726e-007 -1.05141e-006 2.94896e-006 -2.38542e-015 -3.18055e-015 -0 -2.94766e-006 -6.46463e-007 -5.65525e-007 -5.65525e-007 -1.49547e-006 2.94766e-006 -5.62726e-007 -1.05141e-006 2.94896e-006 -2.94766e-006 -6.46463e-007 -5.65525e-007 -5.65525e-007 -1.49547e-006 2.94766e-006 -5.62726e-007 -1.05141e-006 2.94896e-006 -2.38542e-015 -3.18055e-015 -0 -2.94766e-006 -6.46463e-007 -5.65525e-007 -5.65525e-007 -1.49547e-006 2.94766e-006 -5.62726e-007 -1.05141e-006 2.94896e-006 -2.94766e-006 -6.46463e-007 -5.65525e-007 -5.65525e-007 -1.49547e-006 2.94766e-006 -5.62726e-007 -1.05141e-006 2.94896e-006 18.1019 -22.0231 29.8099 43.9718 -1.89127 6.04623 37.1376 26.9371 17.1721 -49.7772 2.37849 -29.4731 -2.82995e-006 -2.75039e-006 -2.8035e-006 2.73625e-006 2.29511e-006 2.79188e-006 8.79103e-007 2.34804e-008 -3.69698e-006 7.15625e-015 3.18055e-015 -1.59028e-015 -2.82995e-006 -2.75039e-006 -2.8035e-006 2.73625e-006 2.29511e-006 2.79188e-006 8.79103e-007 2.34804e-008 -3.69698e-006 -2.82995e-006 -2.75039e-006 -2.8035e-006 2.73625e-006 2.29511e-006 2.79188e-006 8.79103e-007 2.34804e-008 -3.69698e-006 7.15625e-015 3.18055e-015 -1.59028e-015 -2.82995e-006 -2.75039e-006 -2.8035e-006 2.73625e-006 2.29511e-006 2.79188e-006 8.79103e-007 2.34804e-008 -3.69698e-006 -2.82995e-006 -2.75039e-006 -2.8035e-006 2.73625e-006 2.29511e-006 2.79188e-006 8.79103e-007 2.34804e-008 -3.69698e-006 9.62679 -32.1013 19.1558 117.136 87.8657 -112.888 -24.7624 59.616 34.7376 -9.75852 -32.0981 -19.3079 -115.267 87.7674 111.052 25.7607 60.499 -35.6705 
